<svg width="108" height="105" viewBox="0 0 108 105" fill="none" xmlns="http://www.w3.org/2000/svg">
<path fill-rule="evenodd" clip-rule="evenodd" d="M1.35018 73.741C1.92458 68.4208 3.92799 63.6834 7.25855 59.4668C7.54287 59.1069 7.69152 58.5498 7.69627 58.0823C7.7208 55.6888 7.71997 53.2948 7.71832 50.9013C7.67957 41.6634 7.64905 22.6253 7.63132 14.2914C7.62802 12.7755 8.20676 12.2538 9.79348 12.2487C12.4385 12.2401 15.0837 12.2464 17.729 12.2462C18.0939 12.2462 18.4586 12.2462 18.9031 12.2462C18.9031 11.2144 18.9015 10.3065 18.9036 9.39843C18.9056 8.45032 18.8766 7.50058 18.9209 6.55429C19.046 3.88575 20.7346 1.71738 23.2413 0.956857C25.7803 0.186374 28.4062 1.03531 30.0168 3.15083C30.9442 4.36905 31.2438 5.77161 31.245 7.25953C31.2461 8.90334 31.2452 10.5471 31.2452 12.1818C48.5972 12.1818 65.7914 12.1818 83.077 12.1818C83.077 11.6853 83.0689 11.252 83.0784 10.8191C83.1132 9.1958 83.0582 7.56378 83.2137 5.95168C83.4868 3.12096 85.7721 1.01193 88.7443 0.68858C91.4458 0.394492 94.2005 2.13463 95.0321 4.77249C95.3011 5.6263 95.3619 6.56283 95.3939 7.46582C95.4498 9.04093 95.4096 10.6195 95.4096 12.246C98.5199 12.246 101.473 12.2706 104.425 12.232C105.387 12.2194 106.167 12.4509 106.734 13.2393C106.734 24.4929 106.734 45.6197 106.734 61.0007C106.734 65.0642 106.734 68.7281 106.734 71.7013C106.734 77.2125 106.734 82.7236 106.734 88.2348C106.237 89.1911 105.387 89.3246 104.394 89.3236C87.9796 89.3075 71.5649 89.3171 55.1501 89.2964C54.4091 89.2953 53.9901 89.4988 53.6159 90.1532C47.6723 100.551 35.8836 106.126 24.0311 103.73C12.5379 101.406 5.21144 94.4022 2.03489 83.2567C1.61079 81.7698 1.45348 80.2091 1.17226 78.6825C1.17226 77.2599 1.17226 75.8372 1.17226 74.4145C1.23328 74.1901 1.32544 73.969 1.35018 73.741ZM28.1345 7.08942C28.1237 5.09096 26.8516 3.71889 25.0762 3.71198C23.259 3.70507 22.0143 5.09787 22.0051 7.16889C21.9964 9.02813 22.0032 10.8876 22.0032 12.747C22.0032 14.6063 21.9939 16.4657 22.0059 18.3251C22.0187 20.3395 23.3182 21.7188 25.1674 21.706C26.8632 21.6943 28.1241 20.3008 28.1347 18.3471C28.1549 14.5947 28.1549 10.8418 28.1345 7.08942ZM92.2959 6.74879C92.2844 5.04381 90.9865 3.76198 89.3346 3.71259C87.7466 3.66523 86.3426 4.83021 86.2558 6.50531C86.1475 8.59584 86.2298 10.6959 86.2298 12.7919C86.2166 12.7919 86.2034 12.7919 86.19 12.7919C86.19 14.6857 86.1506 16.5807 86.2003 18.4731C86.2587 20.7051 87.9866 22.0959 89.9993 21.6016C91.345 21.2709 92.2868 20.15 92.2957 18.7204C92.3204 14.7298 92.3231 10.7392 92.2959 6.74879ZM103.522 15.3979C100.88 15.3979 98.2261 15.3979 95.3871 15.3979C95.3871 16.611 95.4395 17.8506 95.3766 19.0846C95.2335 21.8877 93.0408 24.2522 90.2772 24.6573C86.3187 25.2373 83.1912 22.5084 83.0823 18.3652C83.0568 17.39 83.0786 16.4137 83.0786 15.3725C65.7877 15.3725 48.5968 15.3725 31.138 15.3725C31.138 16.7949 31.2665 18.1573 31.1123 19.4879C30.7543 22.5753 27.9926 24.8809 24.9528 24.7735C21.7166 24.6593 19.1536 22.2597 18.9409 19.071C18.8601 17.8636 18.9279 16.6466 18.9279 15.3708C16.1956 15.3708 13.5727 15.3708 10.8864 15.3708C10.8864 19.8354 10.8864 24.2569 10.8864 28.7638C41.7437 28.7638 72.5962 28.7638 103.522 28.7638C103.522 24.3295 103.522 19.9098 103.522 15.3979ZM4.66734 80.5454C6.16417 89.4886 11.333 95.8421 19.7579 99.3202C29.4789 103.333 39.9407 101.068 47.2634 93.4876C52.8588 87.6954 54.987 80.6895 53.8008 72.7457C53.34 69.6601 52.2228 66.8087 50.6598 64.1084C50.0948 63.1323 50.2926 62.2628 51.081 61.8059C51.9001 61.3313 52.7502 61.5917 53.3233 62.565C56.6467 68.2074 57.9015 74.2645 56.9108 80.7241C56.631 82.55 56.1034 84.3387 55.6787 86.1927C71.6101 86.1927 87.5658 86.1927 103.635 86.1927C103.635 85.7506 103.635 85.3533 103.635 84.9556C103.635 77.3363 103.639 69.7168 103.629 62.0974C103.629 61.9657 103.632 61.836 103.639 61.709C103.626 51.9154 103.635 38.3766 103.635 33.1436C103.635 32.7521 103.635 32.3607 103.635 31.9888C72.6189 31.9888 41.7542 31.9888 10.8227 31.9888C10.8227 32.4646 10.8229 32.8672 10.8227 33.2698C10.8221 35.2867 10.8365 45.7516 10.8223 50.2883C10.8233 51.7787 10.8225 53.269 10.8264 54.7594C10.8268 55.0317 10.8736 55.3041 10.911 55.7077C14.4219 52.8074 18.2298 50.8748 22.4885 49.7873C22.7514 49.7202 23.0483 49.1672 23.0543 48.8351C23.1015 46.2963 23.0695 43.756 23.0844 41.2163C23.0935 39.6645 23.6209 39.142 25.2012 39.1339C28.1897 39.1184 31.1786 39.1156 34.1672 39.1353C35.6832 39.1453 36.2112 39.6869 36.2165 41.1699C36.2258 43.7098 36.258 46.2505 36.1967 48.7888C36.177 49.6081 36.4136 49.9643 37.2254 50.1895C41.468 51.3667 45.1559 53.5269 48.3698 56.4867C48.6693 56.7625 48.9858 57.0377 49.2169 57.3661C49.6876 58.0352 49.6353 58.7286 49.0543 59.3014C48.5087 59.8391 47.8335 59.9324 47.1758 59.4922C46.7525 59.2089 46.3752 58.8551 45.9961 58.5126C38.5482 51.7807 27.7023 50.1655 18.5615 54.4307C8.5187 59.1174 2.83794 69.6168 4.66734 80.5454ZM26.1995 48.9654C28.5412 48.9654 30.7585 48.9654 33.0453 48.9654C33.0453 46.7269 33.0453 44.5205 33.0453 42.2089C30.9085 42.2089 28.8243 42.1973 26.7409 42.229C26.5582 42.2319 26.2255 42.514 26.2228 42.6705C26.1877 44.7557 26.1995 46.8415 26.1995 48.9654Z" fill="#81C3FF" stroke="#0194E6" stroke-width="0.8"/>
<path fill-rule="evenodd" clip-rule="evenodd" d="M17.0847 64.6686C19.046 64.1424 20.643 64.7972 22.0302 66.1718C25.5898 69.6994 29.1653 73.2118 32.8899 76.8831C34.2366 75.5153 35.4574 74.1819 36.7796 72.9547C38.7203 71.1538 41.5544 71.195 43.3772 72.9643C45.193 74.7265 45.3165 77.5587 43.4892 79.4614C41.0812 81.969 38.5987 84.4118 36.0592 86.7897C34.1692 88.5595 31.5003 88.6109 29.6348 86.8147C24.647 82.0115 19.7575 77.1089 14.8303 72.2444C14.7338 72.1493 14.6545 72.0363 14.5724 71.9279C12.5855 69.3173 13.8918 65.5253 17.0847 64.6686ZM17.4399 70.5172C20.8057 73.8551 24.1874 77.1772 27.5631 80.5053C28.8259 81.7501 30.071 83.0133 31.3627 84.2286C31.7615 84.6038 32.2864 84.8483 32.8088 85.1885C33.3579 84.8524 33.8467 84.6593 34.1935 84.3235C36.4728 82.1178 38.7298 79.8897 40.9757 77.6508C41.8245 76.8041 41.8806 75.7999 41.1798 75.1434C40.4627 74.4715 39.5269 74.5577 38.6333 75.4243C37.2132 76.8012 35.8165 78.2017 34.4055 79.5878C33.1424 80.8284 32.5029 80.8231 31.2172 79.557C27.5483 75.9437 23.8823 72.3277 20.215 68.7127C20.0449 68.5452 19.8812 68.3708 19.7047 68.2103C18.8248 67.4107 17.9407 67.3408 17.2331 68.0099C16.5282 68.6759 16.5834 69.6677 17.4399 70.5172Z" fill="#81C3FF" stroke="#0194E6" stroke-width="0.8"/>
<path fill-rule="evenodd" clip-rule="evenodd" d="M61.5977 39.1436C64.7552 39.1097 67.9138 39.1095 71.0714 39.1444C72.3274 39.1582 72.8843 39.7452 72.8932 40.9888C72.915 44.0679 72.9167 47.1474 72.8928 50.2265C72.8829 51.5012 72.2825 52.0447 70.9584 52.0573C69.414 52.0721 67.8691 52.0607 66.3244 52.0607C64.7798 52.0607 63.2349 52.0731 61.6902 52.0569C60.3705 52.0433 59.773 51.4996 59.7623 50.2163C59.7367 47.1374 59.7371 44.0577 59.7625 40.9786C59.7732 39.7423 60.3416 39.1572 61.5977 39.1436ZM62.9304 48.9369C65.1932 48.9369 67.4335 48.9369 69.7364 48.9369C69.7364 46.7332 69.7364 44.5539 69.7364 42.2881C67.471 42.2881 65.234 42.2881 62.9304 42.2881C62.9304 44.5059 62.9304 46.6864 62.9304 48.9369Z" fill="#81C3FF" stroke="#0194E6" stroke-width="0.8"/>
<path fill-rule="evenodd" clip-rule="evenodd" d="M43.374 52.0574C42.0501 52.0452 41.4411 51.5097 41.4285 50.2345C41.3984 47.1557 41.4011 44.0762 41.4273 40.9973C41.4378 39.7467 41.9978 39.1588 43.2439 39.1447C46.4013 39.109 49.5601 39.1102 52.7175 39.1431C53.9844 39.1563 54.5462 39.7378 54.5547 40.9704C54.5757 44.0493 54.5751 47.1288 54.5553 50.2077C54.5471 51.492 53.9586 52.043 52.6418 52.0568C51.0975 52.0729 49.5527 52.0607 48.008 52.0607C46.4633 52.0609 44.9187 52.0718 43.374 52.0574ZM51.3751 48.9493C51.3751 46.7583 51.3751 44.5526 51.3751 42.2755C49.0675 42.2755 46.8532 42.2755 44.5824 42.2755C44.5824 44.53 44.5824 46.7112 44.5824 48.9493C46.8524 48.9493 49.0706 48.9493 51.3751 48.9493Z" fill="#81C3FF" stroke="#0194E6" stroke-width="0.8"/>
<path fill-rule="evenodd" clip-rule="evenodd" d="M89.379 52.0559C87.8345 52.0768 86.2898 52.061 84.7452 52.061C83.1663 52.061 81.5872 52.0742 80.0085 52.0569C78.6986 52.0425 78.1146 51.4919 78.1051 50.1962C78.0824 47.1513 78.0851 44.1057 78.1032 41.0606C78.111 39.7428 78.6518 39.1568 79.9569 39.1426C83.0801 39.1089 86.2041 39.1119 89.3272 39.1404C90.6537 39.1524 91.222 39.7194 91.2319 41.0096C91.2552 44.0885 91.2576 47.1677 91.2298 50.2466C91.2187 51.4864 90.6261 52.039 89.379 52.0559ZM88.0629 42.3008C85.8214 42.3008 83.5846 42.3008 81.2437 42.3008C81.2437 44.5396 81.2437 46.6932 81.2437 48.9268C83.5069 48.9268 85.7482 48.9268 88.0629 48.9268C88.0629 46.7574 88.0629 44.5785 88.0629 42.3008Z" fill="#81C3FF" stroke="#0194E6" stroke-width="0.8"/>
<path fill-rule="evenodd" clip-rule="evenodd" d="M61.4684 60.348C64.6946 60.3193 67.9214 60.3197 71.1479 60.3443C72.2854 60.3531 72.8789 60.9191 72.8905 62.0381C72.9226 65.1845 72.9206 68.3319 72.8923 71.4784C72.8818 72.6562 72.2882 73.2052 71.093 73.2228C69.5144 73.246 67.9353 73.2285 66.3562 73.2277C64.7428 73.2267 63.1293 73.2468 61.5164 73.2198C60.4183 73.2015 59.7948 72.6812 59.7804 71.627C59.7359 68.4132 59.7375 65.1981 59.7759 61.9843C59.7886 60.9104 60.382 60.3577 61.4684 60.348ZM62.9262 70.1147C65.1985 70.1147 67.4126 70.1147 69.7139 70.1147C69.7139 67.9173 69.7139 65.7184 69.7139 63.4669C67.4495 63.4669 65.2125 63.4669 62.9262 63.4669C62.9262 65.7078 62.9262 67.8833 62.9262 70.1147Z" fill="#81C3FF" stroke="#0194E6" stroke-width="0.8"/>
<path fill-rule="evenodd" clip-rule="evenodd" d="M79.9877 60.3373C83.1108 60.3174 86.2344 60.317 89.3577 60.3377C90.669 60.3462 91.2245 60.9013 91.2337 62.2171C91.2552 65.2618 91.2558 68.3074 91.2333 71.3521C91.2234 72.6939 90.6478 73.2134 89.2468 73.2254C87.7366 73.2382 86.2264 73.2284 84.7161 73.2284C83.1717 73.2284 81.627 73.2388 80.0825 73.2252C78.6855 73.2128 78.114 72.6892 78.1047 71.3442C78.0841 68.2995 78.0839 65.2539 78.1047 62.2091C78.114 60.9009 78.6733 60.3458 79.9877 60.3373ZM81.2757 70.087C83.5096 70.087 85.748 70.087 88.0619 70.087C88.0619 67.9228 88.0619 65.7472 88.0619 63.4455C85.782 63.4455 83.5661 63.4455 81.2757 63.4455C81.2757 65.6518 81.2757 67.8279 81.2757 70.087Z" fill="#81C3FF" stroke="#0194E6" stroke-width="0.8"/>
</svg>
