<svg width="102" height="89" viewBox="0 0 102 89" fill="none" xmlns="http://www.w3.org/2000/svg">
<path fill-rule="evenodd" clip-rule="evenodd" d="M5.23273 1.01564C35.8805 1.05998 66.5286 1.05964 97.1764 1.01597C99.2916 1.01295 100.796 1.64178 101.641 3.61659C101.641 6.65087 101.641 14.4709 101.641 20.6751C101.641 21.6792 101.641 22.6425 101.641 23.5347V27.9224C101.641 29.2207 101.641 30.519 101.641 31.8173C101.641 47.0024 101.641 62.1872 101.641 77.3724C100.899 79.4305 99.386 80.1087 97.2687 80.105C76.8078 80.0701 56.3472 80.0842 35.8862 80.0842C35.4683 80.0842 35.0505 80.0842 34.5275 80.0842C34.5275 81.9626 34.5281 83.7268 34.5268 85.491C34.5268 85.885 34.5523 86.2827 34.508 86.6724C34.3595 87.9761 33.4912 88.5179 32.2775 88.0241C31.3068 87.6287 30.387 87.1057 29.4085 86.7342C29.0387 86.5938 28.5241 86.6059 28.1512 86.7483C27.2043 87.1097 26.3087 87.6049 25.3759 88.008C24.1068 88.5562 23.1206 87.9344 23.1001 86.5461C23.0699 84.4497 23.0924 82.3522 23.0924 80.145C22.6426 80.1225 22.2654 80.0865 21.8882 80.0865C16.2721 80.0828 10.6557 80.0405 5.04025 80.1064C2.92065 80.1312 1.41512 79.4235 0.670403 77.3724C0.670403 52.7875 0.670403 28.2019 0.670403 3.61659C1.53638 1.59777 3.096 1.01261 5.23273 1.01564ZM26.1324 84.4668C27.905 83.147 29.642 83.0301 31.468 84.5588C31.468 78.3734 31.468 72.4654 31.468 66.4073C29.739 68.069 27.9728 68.2286 26.1324 66.3542C26.1324 72.4291 26.1324 78.3307 26.1324 84.4668ZM28.0531 64.0347C28.2349 64.3082 28.4475 64.5608 28.7152 64.9148C29.3084 64.2578 29.8015 63.7781 30.2164 63.2383C31.257 61.8832 32.6437 61.4072 34.2926 61.5319C34.4562 61.5443 34.6195 61.5651 34.7834 61.5759C36.3676 61.6807 36.4724 61.6387 36.3303 60.0787C36.1365 57.9558 36.8842 56.3165 38.5177 54.985C39.5936 54.1076 39.5953 53.9121 38.5083 53.0401C36.8217 51.687 36.1311 49.991 36.335 47.8445C36.47 46.4206 36.3575 46.3088 34.9678 46.4552C32.7727 46.6863 31.0703 45.9362 29.7081 44.2167C28.9224 43.2251 28.6527 43.2221 27.8952 44.1952C26.518 45.9648 24.7733 46.6914 22.5476 46.4508C21.254 46.3108 21.0907 46.4938 21.2429 47.8177C21.4898 49.9661 20.7881 51.6645 19.1021 53.0172C18.0175 53.8872 18.0047 54.1445 19.0494 54.9719C20.8099 56.3662 21.5099 58.1251 21.2351 60.3448C21.0927 61.4953 21.2886 61.7415 22.3786 61.5729C24.8257 61.195 26.691 61.989 28.0531 64.0347ZM23.0188 64.5712C22.6554 64.5712 22.3618 64.5661 22.0685 64.5722C19.3403 64.6283 18.0232 63.3952 18.2808 60.6894C18.4377 59.0448 18.0013 57.9262 16.7612 56.8298C14.7706 55.07 14.7618 52.9762 16.7427 51.2241C17.9788 50.1307 18.4078 49.0115 18.3087 47.3736C18.1545 44.8264 19.6201 43.4848 22.1747 43.472C22.4703 43.4707 22.7696 43.4693 23.0608 43.5113C24.0286 43.6514 24.7914 43.3433 25.3914 42.562C25.6695 42.1996 26.001 41.8697 26.3464 41.5687C27.9792 40.1462 29.8106 40.0447 31.2533 41.6477C32.5352 43.0716 33.8573 43.6306 35.7804 43.5378C38.0176 43.43 39.2483 44.8855 39.3145 47.1462C39.3212 47.3763 39.3458 47.6124 39.3044 47.8355C39.0555 49.1808 39.5231 50.207 40.6367 50.9756C40.8493 51.1227 41.0199 51.335 41.1936 51.5318C42.6326 53.1633 42.7751 55.0028 41.1751 56.4375C39.6823 57.7764 39.1556 59.1859 39.2551 61.1567C39.3592 63.2118 38.0159 64.3827 35.9208 64.5299C35.4778 64.5614 35.0307 64.5346 34.5782 64.5346C34.5782 66.7791 34.5782 68.8702 34.5782 71.0055C53.9323 71.0055 73.2357 71.0055 92.5576 71.0055C92.5576 50.6793 92.5576 30.4165 92.5576 10.1238C64.9209 10.1238 37.3424 10.1238 9.69495 10.1238C9.69495 10.6314 9.69495 11.0546 9.69495 11.4776C9.69495 23.7289 9.69496 35.9802 9.69362 48.2318H9.70068V59.374H9.69395C9.69495 62.899 9.69495 66.4237 9.69495 69.9484C9.69495 70.2961 9.69495 70.6441 9.69495 71.0119C14.2136 71.0119 18.5999 71.0119 23.0188 71.0119C23.0188 68.8382 23.0188 66.722 23.0188 64.5712ZM3.62875 75.848C3.62875 77.0963 3.65462 77.1245 4.89212 77.1252C10.6107 77.1272 16.3295 77.1268 22.0484 77.1235C22.3638 77.1235 22.6796 77.0885 23.0118 77.0687C23.0118 76.0096 23.0118 75.0455 23.0118 74.0267C22.5748 74.0267 22.2153 74.0267 21.8559 74.0267C17.4518 74.0267 13.0477 74.0301 8.64355 74.025C7.2287 74.0237 6.74397 73.5494 6.74028 72.1436C6.73188 68.5944 6.73625 65.0441 6.73759 61.4949C6.73759 60.7515 6.73592 60.0082 6.73659 59.2645V48.2312H6.73827C6.73626 35.2264 6.73627 22.221 6.73795 9.21621C6.73795 7.46343 7.12054 7.08117 8.88811 7.08117C37.0548 7.07949 65.2212 7.07982 93.388 7.08083C95.2083 7.08083 95.5734 7.451 95.5734 9.27835C95.5744 30.1159 95.5741 50.9534 95.5734 71.7906C95.5734 73.6703 95.2147 74.0264 93.3319 74.0264C74.1706 74.0267 55.0096 74.0264 35.8483 74.0264C35.4327 74.0264 35.0172 74.0264 34.6138 74.0264C34.6138 75.1231 34.6138 76.0855 34.6138 77.1258C35.0232 77.1258 35.3464 77.1258 35.6699 77.1258C56.2115 77.1258 76.753 77.1258 97.295 77.1252C98.6816 77.1252 98.6826 77.1225 98.6826 75.6767C98.6826 61.0572 98.6826 46.4371 98.6829 31.8173H98.6762V20.6751H98.6839C98.6856 15.0819 98.6826 7.75164 98.6819 5.3257C98.6816 4.00725 98.6803 4.00457 97.387 4.00457C66.5582 4.00423 35.7293 4.00826 4.90051 3.98508C3.92166 3.98441 3.60593 4.23533 3.60693 5.25045C3.63414 28.783 3.62807 52.3155 3.62875 75.848Z" fill="#81C3FF" stroke="#DCEEFF" stroke-width="0.6"/>
<path fill-rule="evenodd" clip-rule="evenodd" d="M19.7077 28.4802C20.0298 28.4318 20.3634 28.4607 20.6919 28.4607C30.8418 28.4604 40.9916 28.4604 51.1412 28.4604C61.3236 28.4604 71.5064 28.4604 81.6888 28.461C82.0174 28.461 82.3516 28.4332 82.6727 28.4839C83.4228 28.6025 83.8293 29.0868 83.878 29.8262C83.93 30.6112 83.5615 31.1675 82.7883 31.3643C82.4463 31.4513 82.0704 31.4167 81.71 31.4167C61.3448 31.4184 40.9796 31.4184 20.6143 31.4174C20.2865 31.4174 19.9465 31.4537 19.6325 31.3825C18.834 31.2014 18.359 30.7022 18.4084 29.8467C18.4548 29.0459 18.9331 28.5957 19.7077 28.4802Z" fill="#81C3FF" stroke="#DCEEFF" stroke-width="0.6"/>
<path fill-rule="evenodd" clip-rule="evenodd" d="M82.6834 22.3652C82.3596 22.4069 82.0281 22.3971 81.6999 22.3971C65.2131 22.3985 48.7262 22.3985 32.2398 22.3971C31.9116 22.3971 31.5801 22.4075 31.2562 22.3649C30.4863 22.2641 30.1071 21.7666 30.0634 21.029C30.0204 20.2977 30.3201 19.7303 31.0691 19.5399C31.4437 19.4445 31.8484 19.4441 32.2394 19.4438C40.4498 19.4388 48.6604 19.4401 56.8711 19.4401C65.1472 19.4401 73.4234 19.4391 81.6999 19.4438C82.0912 19.4438 82.4956 19.4448 82.8702 19.5399C83.6206 19.7297 83.9229 20.301 83.8786 21.0286C83.8339 21.7606 83.4557 22.2661 82.6834 22.3652Z" fill="#81C3FF" stroke="#DCEEFF" stroke-width="0.6"/>
<path fill-rule="evenodd" clip-rule="evenodd" d="M57.3826 59.5444C57.6772 59.5266 57.9735 59.5364 58.2691 59.5374C61.2241 59.5431 64.1791 59.5642 67.1341 59.5501C68.8882 59.5421 69.4969 59.1363 69.8912 57.7594C70.085 57.0832 70.3487 56.5152 71.1526 56.4608C72.0236 56.4023 72.5473 56.8333 72.8922 57.6183C73.1264 58.1514 73.4317 58.6771 73.8093 59.1171C74.4307 59.841 74.9265 59.7802 75.2413 58.8713C75.7639 57.3597 76.2631 55.8239 76.5725 54.2592C76.9853 52.1705 77.2083 50.0442 77.5117 47.9344C77.6208 47.1742 78.0347 46.7352 78.8241 46.7577C79.6293 46.7805 80.2201 47.1379 80.373 47.982C80.4546 48.4322 80.4569 48.8967 80.4952 49.3546C80.6104 50.7278 80.5829 52.1312 80.8694 53.4678C81.5544 56.6657 82.3636 59.8377 83.1761 63.0063C83.3877 63.8323 83.3061 64.441 82.4848 64.789C81.6803 65.1303 80.9967 64.9193 80.5181 64.189C80.3421 63.9203 80.2389 63.5962 80.1402 63.2858C79.6437 61.7238 79.1597 60.1575 78.6578 58.5505C76.3706 63.009 74.5362 63.657 71.4932 61.0023C70.3719 62.2021 68.9275 62.4514 67.424 62.486C65.9473 62.5199 64.4693 62.5152 62.9916 62.5135C61.1203 62.5112 59.2482 62.5226 57.3779 62.4725C56.3943 62.4463 55.8861 61.8854 55.8861 61.0009C55.8854 60.1044 56.3943 59.6045 57.3826 59.5444Z" fill="#81C3FF" stroke="#DCEEFF" stroke-width="0.6"/>
<path fill-rule="evenodd" clip-rule="evenodd" d="M46.6021 37.5177C46.9851 37.4452 47.3865 37.4549 47.7798 37.4549C59.0483 37.4519 70.317 37.4519 81.5858 37.4549C81.9788 37.4549 82.3786 37.4502 82.7639 37.5154C83.5341 37.6457 83.874 38.1852 83.8807 38.9161C83.8878 39.6481 83.5549 40.1949 82.79 40.3407C82.4074 40.4136 82.0064 40.4072 81.6134 40.4076C75.9627 40.4113 70.312 40.4102 64.6613 40.4102C59.0106 40.4102 53.3596 40.4116 47.7089 40.4072C47.3169 40.4069 46.9125 40.4139 46.5349 40.3256C45.803 40.1546 45.4224 39.6427 45.4409 38.8943C45.4587 38.1469 45.8631 37.6578 46.6021 37.5177Z" fill="#81C3FF" stroke="#DCEEFF" stroke-width="0.6"/>
<path fill-rule="evenodd" clip-rule="evenodd" d="M28.8068 48.231C31.9543 48.2397 34.5707 50.8568 34.5781 54.0039C34.5855 57.1544 31.9866 59.7789 28.8364 59.8017C25.6903 59.8242 23.0661 57.2475 23.0117 54.0819C22.9576 50.9199 25.6301 48.2219 28.8068 48.231ZM28.7571 56.839C30.2728 56.8649 31.5875 55.5861 31.6151 54.06C31.6426 52.5414 30.3688 51.2283 28.8398 51.1987C27.3275 51.1692 26.0033 52.4547 25.9771 53.9771C25.9506 55.4897 27.2371 56.8135 28.7571 56.839Z" fill="#81C3FF" stroke="#DCEEFF" stroke-width="0.6"/>
</svg>
