<svg width="21" height="21" viewBox="0 0 21 21" fill="none" xmlns="http://www.w3.org/2000/svg">
<path d="M10.8174 1.46582C15.8358 1.46582 19.9159 5.54753 19.916 10.5654C19.916 15.5835 15.8359 19.666 10.8174 19.666C9.10733 19.6659 7.50978 19.194 6.14062 18.3691L3.30469 19.2764C3.01757 19.368 2.70281 19.2908 2.49121 19.0762C2.27957 18.8615 2.2069 18.5456 2.30273 18.2598L3.20996 15.5537C2.26528 14.1208 1.71582 12.4046 1.71582 10.5654C1.71599 5.54649 5.79517 1.46592 10.8135 1.46582H10.8174ZM7.69043 6.8623C7.60684 6.86234 7.53118 6.87484 7.47461 6.89355C7.41698 6.91266 7.40393 6.92915 7.41309 6.91992C7.20238 7.13504 6.79297 7.51833 6.79297 8.37988C6.79302 8.7952 6.94926 9.2501 7.15527 9.65625C7.34519 10.0306 7.5466 10.3048 7.61523 10.3984C7.78983 10.6278 9.13699 12.747 11.2139 13.7051L11.418 13.7939L12.0459 14.041C12.6085 14.2487 12.9842 14.3456 13.2432 14.3867C13.5539 14.436 13.7013 14.407 13.8516 14.375C14.064 14.3288 14.3258 14.2199 14.5469 14.0703C14.7828 13.9106 14.8745 13.7732 14.8936 13.7197L14.9434 13.5605C14.9718 13.4593 14.9914 13.3658 15.0039 13.2842C14.9919 13.2782 14.9792 13.2728 14.9668 13.2666V13.2656C14.8441 13.2046 14.492 13.0316 14.1436 12.8633C13.9677 12.7783 13.795 12.696 13.6543 12.6309C13.632 12.6206 13.6109 12.6107 13.5908 12.6016C13.4066 12.8607 13.1984 13.1514 13.0146 13.3496L13.0107 13.3535C12.5725 13.8197 11.9471 13.8071 11.5361 13.6367H11.5352C11.2605 13.5222 10.3989 13.216 9.36426 12.2949C8.55129 11.5711 8.013 10.6881 7.86133 10.4316L7.85742 10.4248C7.68739 10.131 7.63382 9.79546 7.74609 9.46582C7.78951 9.33838 7.85561 9.22762 7.91406 9.14453L8.03809 8.98926C8.11374 8.89681 8.18463 8.81925 8.24414 8.75586C8.3108 8.68485 8.3563 8.63832 8.4043 8.58301C8.43393 8.54886 8.45258 8.5251 8.4707 8.50391C8.32968 8.17359 7.9673 7.29601 7.78906 6.86523C7.75636 6.86407 7.72401 6.8623 7.69043 6.8623Z" stroke="#26A1FC" stroke-width="1.6" stroke-linejoin="round"/>
</svg>
