<svg width="21" height="22" viewBox="0 0 21 22" fill="none" xmlns="http://www.w3.org/2000/svg">
<path d="M10.4727 0.625C13.307 0.625 13.6532 0.636927 14.7598 0.689453H14.7617C15.8225 0.736236 16.5276 0.906735 17.1377 1.14258L17.1426 1.14355C17.7681 1.37902 18.3395 1.75211 18.8115 2.23145L18.8184 2.23828C19.2999 2.7089 19.6683 3.27529 19.9082 3.91016L19.9102 3.91406C20.1455 4.51936 20.3155 5.2286 20.3623 6.29004C20.4107 7.39204 20.4141 7.73713 20.4141 10.5742C20.4141 13.4085 20.402 13.7558 20.3535 14.8594C20.3067 15.9199 20.1371 16.6251 19.9014 17.2354C19.4092 18.5081 18.4028 19.5147 17.1299 20.0068H17.1289C16.5239 20.2422 15.8152 20.4121 14.7539 20.459C13.6504 20.5076 13.3031 20.5205 10.4688 20.5205C7.63468 20.5205 7.28783 20.5076 6.18457 20.459C5.1235 20.4122 4.41794 20.2427 3.80762 20.0068L3.80371 20.0049C3.17822 19.7694 2.60672 19.3973 2.13477 18.918L2.12988 18.9131L1.95508 18.7314C1.55907 18.2976 1.2477 17.7939 1.03809 17.2393L1.03613 17.2344C0.800833 16.6292 0.630798 15.9204 0.583984 14.8594C0.53551 13.7558 0.523438 13.4085 0.523438 10.5742C0.523439 7.74043 0.535374 7.39442 0.587891 6.28809V6.28613C0.63467 5.22514 0.805094 4.51953 1.04102 3.90918L1.04199 3.90527C1.27765 3.27958 1.65058 2.70828 2.12988 2.23633L2.13672 2.22949C2.54843 1.80818 3.03311 1.47314 3.57324 1.23535L3.80859 1.13965L3.81348 1.1377C4.41861 0.902523 5.12736 0.73235 6.18848 0.685547C7.29196 0.637075 7.63873 0.625001 10.4727 0.625ZM10.4814 1.52344C7.69083 1.52344 7.35126 1.53553 6.23828 1.58496C5.43408 1.62056 4.89054 1.73234 4.49316 1.85449L4.14844 1.97461C3.63077 2.16571 3.16416 2.46772 2.77637 2.86133C2.37 3.24892 2.06493 3.72371 1.87207 4.24219C1.73029 4.60678 1.57189 5.11526 1.50293 5.95801L1.47949 6.33984C1.42989 7.44881 1.41797 7.79237 1.41797 10.583C1.41797 12.6761 1.4239 13.3901 1.44824 14.0859L1.47949 14.8262C1.52649 15.8909 1.70785 16.4984 1.86914 16.915V16.916C2.06068 17.4341 2.36346 17.9009 2.75781 18.2891V18.29C3.14444 18.6908 3.6187 18.9948 4.13672 19.1875V19.1885C4.13796 19.189 4.13938 19.189 4.14062 19.1895C4.14186 19.1899 4.1433 19.191 4.14453 19.1914V19.1904C4.5086 19.3314 5.01571 19.4882 5.85254 19.5566L6.23438 19.5811C7.34329 19.6306 7.68712 19.6426 10.4775 19.6426C13.2676 19.6426 13.607 19.6306 14.7197 19.5811C15.792 19.5338 16.4005 19.3496 16.8174 19.1875C17.8585 18.7856 18.684 17.9601 19.0859 16.9189L19.0869 16.9199C19.2489 16.5033 19.4321 15.898 19.4795 14.8213C19.5289 13.7086 19.541 13.3733 19.541 10.583C19.541 7.79223 19.5289 7.45282 19.4795 6.33984C19.4439 5.53559 19.3321 4.99205 19.21 4.59473L19.0869 4.24219C18.9178 3.78754 18.6631 3.3724 18.3359 3.01562L18.1904 2.86523C17.8038 2.46773 17.331 2.1654 16.8145 1.97461H16.8135C16.3972 1.81342 15.7936 1.63213 14.7246 1.58496C13.6156 1.53552 13.2761 1.52344 10.4814 1.52344Z" fill="white" stroke="#26A1FC"/>
<path d="M10.4736 5.70312C13.1608 5.70339 15.3408 7.88408 15.3408 10.5713C15.3406 13.2583 13.1606 15.4382 10.4736 15.4385C7.78657 15.4385 5.60573 13.2584 5.60547 10.5713C5.60547 7.88393 7.78641 5.70312 10.4736 5.70312ZM10.4736 6.58887C8.27503 6.58887 6.49121 8.3725 6.49121 10.5713C6.49147 12.7699 8.27519 14.5527 10.4736 14.5527C12.672 14.5525 14.4548 12.7697 14.4551 10.5713C14.4551 8.37268 12.6722 6.58913 10.4736 6.58887Z" fill="white" stroke="#26A1FC"/>
<path d="M16.0518 4.23828C16.4678 4.23828 16.8056 4.57535 16.8057 4.99121C16.8057 5.40703 16.4678 5.74414 16.0518 5.74414C15.636 5.74404 15.2988 5.40702 15.2988 4.99121C15.2989 4.57537 15.636 4.23838 16.0518 4.23828Z" fill="white" stroke="#26A1FC"/>
</svg>
