<svg width="21" height="19" viewBox="0 0 21 19" fill="none" xmlns="http://www.w3.org/2000/svg">
<path d="M17.7529 1.60938C18.2976 1.40668 18.991 1.40872 19.499 1.89746C19.9975 2.37714 20.0721 3.09213 19.9258 3.77441C19.9249 3.77837 19.9228 3.78219 19.9219 3.78613L17.2881 16.1318L17.2852 16.1426C17.1629 16.6789 16.8913 17.2502 16.3096 17.5137C15.7249 17.7784 15.1231 17.5992 14.6611 17.3418C14.6324 17.3258 14.6047 17.3075 14.5781 17.2881L11.1016 14.7412L9.65723 16.1201L9.6582 16.1211C9.56378 16.2149 9.39282 16.3906 9.16406 16.5225C8.90853 16.6697 8.62007 16.7451 8.28613 16.7451C8.06432 16.745 7.8524 16.6525 7.70117 16.4902C7.54984 16.3278 7.47254 16.1092 7.48828 15.8877L7.77734 11.8223L7.80371 11.6699C7.84376 11.522 7.92538 11.387 8.04102 11.2832L10.3428 9.21582L6.7373 11.4727C6.53987 11.596 6.2985 11.6267 6.07617 11.5576L2.1123 10.3252V10.3242C1.83007 10.2366 1.54416 10.1028 1.31934 9.89258C1.08257 9.67119 0.885777 9.33224 0.922852 8.91113C0.957687 8.51618 1.18468 8.22035 1.40723 8.02539C1.63419 7.8266 1.92292 7.67104 2.24023 7.54785L2.24414 7.54688L17.7461 1.61133L17.7529 1.60938Z" stroke="#26A1FC" stroke-width="1.6" stroke-linejoin="round"/>
</svg>
