<svg width="118" height="100" viewBox="0 0 118 100" fill="none" xmlns="http://www.w3.org/2000/svg">
<path fill-rule="evenodd" clip-rule="evenodd" d="M61.0506 73.7087V95.1807L92.3192 76.4192C92.9216 76.0578 93.2902 75.4068 93.2902 74.7042V53.7647L61.0506 73.7087ZM93.9828 49.6361L60.5314 70.3352C59.8866 70.7342 59.0716 70.7342 58.4267 70.3353L25.0338 49.6754C24.9591 49.6194 24.8793 49.5699 24.7952 49.5278L13.4411 42.5031V41.8924C13.4411 40.7878 14.3365 39.8924 15.4411 39.8924H68.4937C69.3626 39.8924 70.0643 39.1867 70.0643 38.3218C70.0643 37.4528 69.3606 36.7492 68.4937 36.7492H11.8725C11.0015 36.7492 10.2978 37.4548 10.2978 38.3218V40.5584L8.59102 39.5024C7.32736 38.7206 7.32739 36.8826 8.59107 36.1008L58.4268 5.26986C59.0716 4.87094 59.8866 4.87097 60.5313 5.26993L110.36 36.1009C111.623 36.8827 111.623 38.7205 110.36 39.5024L94.0933 49.5677C94.0555 49.589 94.0186 49.6118 93.9828 49.6361ZM96.4355 51.8187L116.923 39.1384C117.387 38.848 117.669 38.346 117.669 37.8016C117.669 37.2572 117.387 36.7511 116.923 36.4628L60.3017 1.43121C59.7956 1.11668 59.1545 1.11668 58.6484 1.43121L2.02724 36.4628C1.56351 36.7511 1.28125 37.2572 1.28125 37.8016C1.28125 38.346 1.56351 38.85 2.02724 39.1384L10.2978 44.2578V80.6117C10.2978 81.4767 11.0035 82.1824 11.8725 82.1824C12.7394 82.1824 13.4411 81.4767 13.4411 80.6097V46.2034L22.5189 51.8225V76.7217C22.5189 77.2762 22.8092 77.7883 23.283 78.0726L58.532 99.2196C58.8056 99.4235 59.1386 99.5331 59.4764 99.5331C59.6406 99.5331 59.8062 99.5071 59.9677 99.4533C60.0656 99.4214 60.1611 99.3795 60.2522 99.3274L60.2756 99.3138C60.293 99.3035 60.3102 99.2929 60.3271 99.282L95.6734 78.0766C96.1452 77.7924 96.4355 77.2802 96.4355 76.7258V51.8187ZM25.6642 53.7685V74.7002C25.6642 75.4027 26.0327 76.0537 26.6351 76.4152L54.8762 93.3624C56.2093 94.1623 57.9053 93.2021 57.9053 91.6474V73.7123L25.6642 53.7685Z" fill="#81C3FF"/>
<path d="M61.0506 73.7087L60.8928 73.4536L60.7506 73.5415V73.7087H61.0506ZM61.0506 95.1807H60.7506V95.7106L61.205 95.438L61.0506 95.1807ZM92.3192 76.4192L92.1649 76.162L92.3192 76.4192ZM93.2902 53.7647H93.5902V53.2263L93.1324 53.5095L93.2902 53.7647ZM93.9828 49.6361L94.1408 49.8914L94.151 49.8845L93.9828 49.6361ZM60.5314 70.3352L60.3735 70.0801L60.5314 70.3352ZM58.4267 70.3353L58.5846 70.0802L58.4267 70.3353ZM25.0338 49.6754L24.8539 49.9155L24.8646 49.9235L24.8759 49.9305L25.0338 49.6754ZM24.7952 49.5278L24.6373 49.7829L24.6487 49.7899L24.6607 49.796L24.7952 49.5278ZM13.4411 42.5031H13.1411V42.6703L13.2832 42.7582L13.4411 42.5031ZM10.2978 40.5584L10.14 40.8136L10.5978 41.0968V40.5584H10.2978ZM8.59102 39.5024L8.43318 39.7576L8.59102 39.5024ZM8.59107 36.1008L8.43324 35.8457L8.59107 36.1008ZM58.4268 5.26986L58.2689 5.01473H58.2689L58.4268 5.26986ZM60.5313 5.26993L60.3735 5.52504V5.52504L60.5313 5.26993ZM110.36 36.1009L110.202 36.356H110.202L110.36 36.1009ZM110.36 39.5024L110.202 39.2473L110.36 39.5024ZM94.0933 49.5677L94.2407 49.8293L94.2512 49.8228L94.0933 49.5677ZM96.4355 51.8187L96.2776 51.5636L96.1355 51.6516V51.8187H96.4355ZM116.923 39.1384L117.081 39.3935L117.082 39.3926L116.923 39.1384ZM116.923 36.4628L117.081 36.2081L117.081 36.2077L116.923 36.4628ZM60.3017 1.43121L60.1433 1.68601L60.1439 1.68633L60.3017 1.43121ZM58.6484 1.43121L58.8063 1.68633L58.8068 1.68601L58.6484 1.43121ZM2.02724 36.4628L1.86939 36.2077L1.86884 36.2081L2.02724 36.4628ZM2.02724 39.1384L1.86883 39.3931L1.86934 39.3934L2.02724 39.1384ZM10.2978 44.2578H10.5978V44.0907L10.4557 44.0027L10.2978 44.2578ZM13.4411 46.2034L13.599 45.9484L13.1411 45.6649V46.2034H13.4411ZM22.5189 51.8225H22.8189V51.6554L22.6768 51.5674L22.5189 51.8225ZM23.283 78.0726L23.1287 78.3298L23.1287 78.3298L23.283 78.0726ZM58.532 99.2196L58.7113 98.979L58.6992 98.9701L58.6864 98.9623L58.532 99.2196ZM59.9677 99.4533L59.8746 99.1681L59.8729 99.1687L59.9677 99.4533ZM60.2522 99.3274L60.4011 99.5879L60.4029 99.5868L60.2522 99.3274ZM60.2756 99.3138L60.4264 99.5732L60.4285 99.5719L60.2756 99.3138ZM60.3271 99.282L60.1727 99.0246L60.1645 99.0299L60.3271 99.282ZM95.6734 78.0766L95.8277 78.3339L95.8282 78.3336L95.6734 78.0766ZM25.6642 53.7685L25.822 53.5133L25.3642 53.2301V53.7685H25.6642ZM26.6351 76.4152L26.4807 76.6724L26.6351 76.4152ZM54.8762 93.3624L54.7219 93.6196L54.8762 93.3624ZM57.9053 73.7123H58.2053V73.5451L58.0632 73.4572L57.9053 73.7123ZM60.7506 73.7087V95.1807H61.3506V73.7087H60.7506ZM61.205 95.438L92.4736 76.6765L92.1649 76.162L60.8963 94.9235L61.205 95.438ZM92.4736 76.6765C93.1663 76.2608 93.5902 75.5121 93.5902 74.7042H92.9902C92.9902 75.3014 92.6769 75.8548 92.1649 76.162L92.4736 76.6765ZM93.5902 74.7042V53.7647H92.9902V74.7042H93.5902ZM61.2085 73.9638L93.4481 54.0198L93.1324 53.5095L60.8928 73.4536L61.2085 73.9638ZM93.825 49.3809L60.3735 70.0801L60.6892 70.5903L94.1407 49.8912L93.825 49.3809ZM60.3735 70.0801C59.8254 70.4193 59.1327 70.4193 58.5846 70.0802L58.2689 70.5904C59.0105 71.0492 59.9477 71.0492 60.6892 70.5903L60.3735 70.0801ZM58.5846 70.0802L25.1916 49.4203L24.8759 49.9305L58.2689 70.5904L58.5846 70.0802ZM24.6607 49.796C24.7287 49.8301 24.7933 49.8701 24.8539 49.9155L25.2137 49.4353C25.1248 49.3688 25.0298 49.3098 24.9296 49.2596L24.6607 49.796ZM24.953 49.2727L13.5989 42.248L13.2832 42.7582L24.6373 49.7829L24.953 49.2727ZM13.1411 41.8924V42.5031H13.7411V41.8924H13.1411ZM15.4411 39.5924C14.1708 39.5924 13.1411 40.6222 13.1411 41.8924H13.7411C13.7411 40.9535 14.5022 40.1924 15.4411 40.1924V39.5924ZM68.4937 39.5924H15.4411V40.1924H68.4937V39.5924ZM69.7643 38.3218C69.7643 39.0216 69.1965 39.5924 68.4937 39.5924V40.1924C69.5288 40.1924 70.3643 39.3519 70.3643 38.3218H69.7643ZM68.4937 37.0492C69.1947 37.0492 69.7643 37.6182 69.7643 38.3218H70.3643C70.3643 37.2874 69.5266 36.4492 68.4937 36.4492V37.0492ZM11.8725 37.0492H68.4937V36.4492H11.8725V37.0492ZM10.5978 38.3218C10.5978 37.6205 11.1672 37.0492 11.8725 37.0492V36.4492C10.8358 36.4492 9.99783 37.2891 9.99783 38.3218H10.5978ZM10.5978 40.5584V38.3218H9.99783V40.5584H10.5978ZM10.4557 40.3033L8.74886 39.2473L8.43318 39.7576L10.14 40.8136L10.4557 40.3033ZM8.74887 39.2473C7.67475 38.5828 7.67477 37.0205 8.7489 36.3559L8.43324 35.8457C6.98 36.7447 6.97997 38.8585 8.43318 39.7576L8.74887 39.2473ZM8.7489 36.3559L58.5846 5.52498L58.2689 5.01473L8.43324 35.8457L8.7489 36.3559ZM58.5846 5.52498C59.1327 5.1859 59.8254 5.18593 60.3735 5.52504L60.6892 5.01482C59.9477 4.55601 59.0105 4.55598 58.2689 5.01473L58.5846 5.52498ZM60.3735 5.52504L110.202 36.356L110.517 35.8458L60.6892 5.01482L60.3735 5.52504ZM110.202 36.356C111.276 37.0205 111.276 38.5827 110.202 39.2473L110.517 39.7575C111.97 38.8584 111.97 36.7448 110.517 35.8458L110.202 36.356ZM110.202 39.2473L93.9355 49.3125L94.2512 49.8228L110.517 39.7575L110.202 39.2473ZM94.151 49.8845C94.1801 49.8648 94.2099 49.8463 94.2405 49.8291L93.9461 49.3063C93.9011 49.3316 93.8572 49.3588 93.8146 49.3876L94.151 49.8845ZM96.5934 52.0738L117.081 39.3935L116.765 38.8833L96.2776 51.5636L96.5934 52.0738ZM117.082 39.3926C117.632 39.0485 117.969 38.4512 117.969 37.8016H117.369C117.369 38.2407 117.141 38.6476 116.764 38.8841L117.082 39.3926ZM117.969 37.8016C117.969 37.153 117.633 36.5508 117.081 36.2081L116.764 36.7176C117.141 36.9515 117.369 37.3615 117.369 37.8016H117.969ZM117.081 36.2077L60.4595 1.17609L60.1439 1.68633L116.765 36.7179L117.081 36.2077ZM60.4601 1.17641C59.857 0.801613 59.0931 0.801613 58.4901 1.17641L58.8068 1.68601C59.2159 1.43175 59.7342 1.43175 60.1433 1.68601L60.4601 1.17641ZM58.4906 1.17609L1.86939 36.2077L2.18508 36.7179L58.8063 1.68633L58.4906 1.17609ZM1.86884 36.2081C1.31752 36.5508 0.98125 37.153 0.98125 37.8016H1.58125C1.58125 37.3615 1.8095 36.9515 2.18564 36.7176L1.86884 36.2081ZM0.98125 37.8016C0.98125 38.4506 1.31788 39.0506 1.86884 39.3931L2.18564 38.8836C1.80914 38.6495 1.58125 38.2413 1.58125 37.8016H0.98125ZM1.86934 39.3934L10.1399 44.5129L10.4557 44.0027L2.18513 38.8833L1.86934 39.3934ZM10.5978 80.6117V44.2578H9.99783V80.6117H10.5978ZM11.8725 81.8824C11.1687 81.8824 10.5978 81.3105 10.5978 80.6117H9.99783C9.99783 81.6429 10.8383 82.4824 11.8725 82.4824V81.8824ZM13.1411 80.6097C13.1411 81.312 12.5728 81.8824 11.8725 81.8824V82.4824C12.9061 82.4824 13.7411 81.6414 13.7411 80.6097H13.1411ZM13.1411 46.2034V80.6097H13.7411V46.2034H13.1411ZM13.2832 46.4585L22.361 52.0776L22.6768 51.5674L13.599 45.9484L13.2832 46.4585ZM22.8189 76.7217V51.8225H22.2189V76.7217H22.8189ZM23.4374 77.8153C23.054 77.5853 22.8189 77.1708 22.8189 76.7217H22.2189C22.2189 77.3815 22.5645 77.9913 23.1287 78.3298L23.4374 77.8153ZM58.6864 98.9623L23.4374 77.8153L23.1287 78.3298L58.3777 99.4768L58.6864 98.9623ZM59.4764 99.2331C59.2031 99.2331 58.933 99.1443 58.7113 98.979L58.3527 99.4601C58.6783 99.7027 59.0741 99.8331 59.4764 99.8331V99.2331ZM59.8729 99.1687C59.7424 99.2122 59.6088 99.2331 59.4764 99.2331V99.8331C59.6724 99.8331 59.87 99.8021 60.0625 99.738L59.8729 99.1687ZM60.1034 99.0669C60.0304 99.1086 59.9537 99.1423 59.8746 99.1681L60.0607 99.7385C60.1775 99.7005 60.2917 99.6504 60.4011 99.5879L60.1034 99.0669ZM60.1249 99.0544L60.1015 99.068L60.4029 99.5868L60.4264 99.5732L60.1249 99.0544ZM60.1645 99.0299C60.1508 99.0387 60.1369 99.0473 60.1228 99.0557L60.4285 99.5719C60.4492 99.5597 60.4696 99.5471 60.4897 99.5341L60.1645 99.0299ZM95.5191 77.8194L60.1728 99.0247L60.4815 99.5392L95.8277 78.3339L95.5191 77.8194ZM96.1355 76.7258C96.1355 77.1751 95.9003 77.5897 95.5186 77.8197L95.8282 78.3336C96.3901 77.995 96.7355 77.3854 96.7355 76.7258H96.1355ZM96.1355 51.8187V76.7258H96.7355V51.8187H96.1355ZM25.3642 53.7685V74.7002H25.9642V53.7685H25.3642ZM25.3642 74.7002C25.3642 75.5081 25.788 76.2567 26.4807 76.6724L26.7894 76.1579C26.2774 75.8507 25.9642 75.2974 25.9642 74.7002H25.3642ZM26.4807 76.6724L54.7219 93.6196L55.0306 93.1051L26.7894 76.1579L26.4807 76.6724ZM54.7219 93.6196C56.2549 94.5395 58.2053 93.4353 58.2053 91.6474H57.6053C57.6053 92.9689 56.1637 93.7851 55.0306 93.1051L54.7219 93.6196ZM58.2053 91.6474V73.7123H57.6053V91.6474H58.2053ZM25.5063 54.0236L57.7475 73.9675L58.0632 73.4572L25.822 53.5133L25.5063 54.0236Z" fill="#DCEEFF"/>
<path d="M11.7402 77.0273C8.8174 77.0275 6.44824 79.3974 6.44824 82.3203C6.44845 85.243 8.81753 87.6121 11.7402 87.6123C14.6631 87.6123 17.033 85.2432 17.0332 82.3203C17.0332 79.3973 14.6632 77.0273 11.7402 77.0273Z" fill="#DCEEFF" stroke="#81C3FF" stroke-width="2"/>
</svg>
