<svg width="21" height="21" viewBox="0 0 21 21" fill="none" xmlns="http://www.w3.org/2000/svg">
<path d="M10.5176 1.33984C13.203 1.33984 13.5303 1.35163 14.5781 1.40137H14.5801C15.5826 1.44557 16.2481 1.6058 16.8232 1.82812L16.8281 1.83008C17.4173 2.05186 17.9558 2.402 18.4004 2.85352L18.4072 2.86035C18.8609 3.3036 19.2075 3.83741 19.4336 4.43555L19.4355 4.44043C19.6574 5.01107 19.8181 5.68031 19.8623 6.68359C19.9081 7.72692 19.9121 8.05373 19.9121 10.7422C19.9121 12.7564 19.9055 13.4444 19.8828 14.1035L19.8545 14.8008C19.8103 15.8035 19.6491 16.4693 19.4268 17.0449C18.9631 18.2437 18.0153 19.1916 16.8164 19.6553L16.8154 19.6562C16.2449 19.8782 15.5757 20.0388 14.5723 20.083C13.5273 20.1291 13.1992 20.1406 10.5137 20.1406C7.82814 20.1406 7.49981 20.1291 6.45508 20.083C5.4521 20.0388 4.78643 19.8777 4.21094 19.6553L4.20703 19.6543L3.98828 19.5645C3.55653 19.3743 3.15612 19.1143 2.80566 18.7949L2.63477 18.6299L2.62891 18.625L2.46484 18.4531C2.09199 18.0446 1.79893 17.5701 1.60156 17.0479L1.59961 17.0439L1.51953 16.8242C1.36528 16.3751 1.2487 15.8544 1.19434 15.1621L1.17285 14.8008C1.12694 13.7557 1.11523 13.4276 1.11523 10.7422C1.11523 8.05639 1.12701 7.72869 1.17676 6.68066V6.67969C1.22097 5.67688 1.38108 5.01103 1.60352 4.43555L1.60547 4.43164C1.79971 3.91589 2.09219 3.43922 2.46484 3.03027L2.62891 2.85938L2.63574 2.85254C3.07893 2.39893 3.61276 2.05227 4.21094 1.82617L4.21582 1.82422C4.78644 1.60241 5.45567 1.4417 6.45898 1.39746C7.5038 1.35157 7.83228 1.33984 10.5176 1.33984ZM10.5254 2.13867C7.88122 2.13867 7.55877 2.15041 6.50391 2.19727C5.73991 2.23107 5.22231 2.33682 4.84375 2.45312L4.51562 2.56738C4.02164 2.74972 3.57614 3.0386 3.20605 3.41406C2.81818 3.78401 2.52688 4.23686 2.34277 4.73145C2.18826 5.12878 2.01373 5.70474 1.96875 6.72754C1.92172 7.779 1.91016 8.10541 1.91016 10.75C1.91016 12.7337 1.91637 13.4105 1.93945 14.0703L1.96875 14.7715C2.01335 15.783 2.18605 16.3614 2.33984 16.7588V16.7598C2.52259 17.2542 2.81127 17.6998 3.1875 18.0703V18.0713C3.55645 18.4537 4.00886 18.7437 4.50293 18.9277V18.9287C4.50411 18.9292 4.50565 18.9292 4.50684 18.9297C4.50819 18.9302 4.50938 18.9311 4.51074 18.9316V18.9307C4.90782 19.0845 5.48246 19.257 6.49902 19.3018V19.3027C7.55063 19.3498 7.87689 19.3613 10.5215 19.3613C12.5053 19.3613 13.182 19.3541 13.8418 19.3311L14.543 19.3027C15.5619 19.2578 16.1414 19.0833 16.5391 18.9287L16.5381 18.9277C17.5318 18.5443 18.3205 17.7573 18.7041 16.7637C18.8393 16.416 18.99 15.9317 19.0557 15.1309L19.0781 14.7676C19.125 13.7124 19.1367 13.3944 19.1367 10.75C19.1367 8.10569 19.125 7.78337 19.0781 6.72852C19.0443 5.96432 18.9376 5.44689 18.8213 5.06836L18.7041 4.73145C18.5427 4.29772 18.2994 3.90189 17.9873 3.56152L17.8486 3.41797C17.4794 3.03852 17.0281 2.74941 16.5352 2.56738L16.5342 2.56836C16.1871 2.43402 15.7045 2.28486 14.9102 2.21973L14.5469 2.19727C13.4955 2.1504 13.1736 2.13867 10.5254 2.13867Z" fill="white" stroke="white"/>
<path d="M10.5186 6.15332C13.0505 6.15357 15.1045 8.20828 15.1045 10.7402C15.1042 13.272 13.0503 15.3259 10.5186 15.3262C7.98674 15.3262 5.93189 13.2721 5.93164 10.7402C5.93164 8.20813 7.98659 6.15332 10.5186 6.15332ZM10.5186 6.94043C8.42068 6.94043 6.71875 8.64217 6.71875 10.7402C6.71899 12.8381 8.42083 14.5391 10.5186 14.5391C12.6162 14.5388 14.3171 12.8379 14.3174 10.7402C14.3174 8.64234 12.6164 6.94068 10.5186 6.94043Z" fill="white" stroke="white"/>
<path d="M15.8047 4.76514C16.1845 4.76516 16.4922 5.07297 16.4922 5.45264C16.4922 5.83217 16.1845 6.14011 15.8047 6.14014C15.4251 6.14014 15.1172 5.83223 15.1172 5.45264C15.1172 5.07292 15.425 4.76514 15.8047 4.76514Z" fill="white" stroke="white"/>
</svg>
