<svg width="21" height="18" viewBox="0 0 21 18" fill="none" xmlns="http://www.w3.org/2000/svg">
<path d="M17.5195 1.13623C18.0919 0.923197 18.8574 0.913668 19.4268 1.46143C19.9841 1.9978 20.0471 2.77711 19.8994 3.46533L17.4004 15.1753L17.3975 15.189C17.2747 15.7274 16.9894 16.3592 16.3369 16.6548C15.6806 16.9521 15.0228 16.7417 14.5566 16.4819C14.5208 16.4619 14.4862 16.4398 14.4531 16.4155L11.3213 14.1216L10.1025 15.2856L10.1035 15.2866C10.0179 15.3717 9.83495 15.5605 9.58691 15.7036C9.30472 15.8663 8.98881 15.9468 8.63379 15.9468C8.35627 15.9468 8.09149 15.8315 7.90234 15.6284C7.71325 15.4254 7.6171 15.1532 7.63672 14.8765L7.91016 11.0229C7.92864 10.7646 8.04655 10.5232 8.23926 10.3501L8.33984 10.2593L7.29492 10.9136C7.04789 11.0681 6.74505 11.1075 6.4668 11.021L2.71191 9.85303V9.85205C2.42401 9.76272 2.11531 9.62204 1.86621 9.38916C1.60229 9.14241 1.37169 8.75168 1.41504 8.26025C1.45557 7.80209 1.71751 7.46945 1.95508 7.26123C2.19842 7.04806 2.50052 6.88813 2.81738 6.76514L2.82129 6.76318L17.5107 1.13916L17.5195 1.13525V1.13623Z" stroke="white" stroke-width="2" stroke-linejoin="round"/>
</svg>
