<svg width="22" height="21" viewBox="0 0 22 21" fill="none" xmlns="http://www.w3.org/2000/svg">
<path d="M11.3027 1.25C16.192 1.25 20.166 5.22658 20.166 10.1152C20.166 15.0039 16.192 18.9805 11.3027 18.9805C9.67613 18.9805 8.15378 18.5414 6.84082 17.7725L4.25684 18.5996L2.37695 19.2012L3.00488 17.3291L3.82715 14.875C2.94649 13.4992 2.43555 11.8643 2.43555 10.1152C2.43556 5.22552 6.4096 1.25 11.2988 1.25H11.3027ZM14.0098 12.3486C13.8638 12.5506 13.706 12.7621 13.5615 12.918L13.5576 12.9229C13.3682 13.1244 13.1489 13.2459 12.9258 13.3105C13.2444 13.4146 13.4724 13.4707 13.6387 13.4971C13.8322 13.5278 13.9417 13.5224 14.0361 13.5068L14.1279 13.4883C14.2977 13.451 14.5166 13.3602 14.7012 13.2354C14.9035 13.0984 14.9426 13.0052 14.9365 13.0225C14.9608 12.9536 14.9789 12.8875 14.9941 12.8262C14.8361 12.748 14.5914 12.627 14.3486 12.5098C14.2305 12.4527 14.1142 12.3978 14.0098 12.3486ZM8.26367 6.85254C8.24396 6.85553 8.22822 6.85988 8.2168 6.86328C8.10961 6.9729 8.00899 7.07917 7.91895 7.24023C7.82545 7.40764 7.73145 7.66038 7.73145 8.04395C7.7315 8.38294 7.86048 8.7741 8.04785 9.14355C8.06636 9.18004 8.08689 9.21474 8.10547 9.24902C8.11617 9.16474 8.13426 9.07976 8.16309 8.99512C8.25556 8.7237 8.43508 8.51935 8.47656 8.47266C8.55532 8.37603 8.63009 8.29657 8.68848 8.23438C8.73591 8.18385 8.76741 8.14782 8.79785 8.11426C8.65847 7.78219 8.42466 7.22282 8.27148 6.85156C8.26886 6.85191 8.26624 6.85215 8.26367 6.85254Z" stroke="white" stroke-width="2"/>
</svg>
