<svg width="66" height="67" viewBox="0 0 66 67" fill="none" xmlns="http://www.w3.org/2000/svg">
<g filter="url(#filter0_d_25_1194)">
<rect x="15.0781" y="11.5605" width="35.638" height="35.638" rx="10" fill="#80C2FF"/>
</g>
<path d="M32.9023 18.4863C35.588 18.4863 35.9157 18.4978 36.9639 18.5469H36.9648C37.9684 18.5905 38.6351 18.7491 39.2109 18.9688L39.2148 18.9707C39.7309 19.1624 40.2075 19.4509 40.6162 19.8184L40.7871 19.9805L40.7939 19.9873C41.2473 20.4243 41.5938 20.9495 41.8193 21.5381L41.8213 21.543C42.0427 22.1047 42.2029 22.7634 42.2471 23.752C42.2929 24.7811 42.2969 25.1033 42.2969 27.7559C42.2969 30.4047 42.2851 30.7284 42.2393 31.7588C42.1951 32.7466 42.0343 33.4021 41.8125 33.9688C41.35 35.1487 40.4036 36.084 39.2031 36.542L39.2021 36.543C38.6311 36.7621 37.9611 36.9202 36.957 36.9639C35.9121 37.0093 35.5838 37.0205 32.8984 37.0205C30.2127 37.0205 29.8839 37.0093 28.8389 36.9639C27.8355 36.9202 27.1696 36.7616 26.5938 36.542L26.5898 36.541L26.3711 36.4531C25.8667 36.2341 25.4064 35.9199 25.0176 35.5303L25.0117 35.5254L24.8467 35.3564C24.4743 34.9538 24.1822 34.4864 23.9854 33.9727L23.9834 33.9678C23.7897 33.4763 23.6424 32.9108 23.5791 32.1152L23.5576 31.7588C23.5117 30.7284 23.5 30.4047 23.5 27.7559C23.5 25.1064 23.5118 24.7834 23.5615 23.75V23.748C23.6057 22.76 23.7653 22.1046 23.9873 21.5381L23.9893 21.5342C24.2106 20.9543 24.5606 20.4246 25.0117 19.9863L25.0186 19.9795C25.4615 19.5322 25.9948 19.1891 26.5938 18.9658L26.5986 18.9648C27.1697 18.7458 27.839 18.5867 28.8428 18.543C29.8881 18.4977 30.2166 18.4863 32.9023 18.4863ZM32.9102 19.2607C30.2658 19.2607 29.9436 19.2721 28.8887 19.3184C28.1253 19.3517 27.6086 19.4567 27.2305 19.5713L26.8936 19.6875C26.4604 19.8465 26.0641 20.0854 25.7236 20.3936L25.5801 20.5312C25.1983 20.8943 24.9101 21.3372 24.7275 21.8213C24.5919 22.1654 24.4416 22.6446 24.376 23.4365L24.3535 23.7949C24.3065 24.8323 24.2949 25.1541 24.2949 27.7627C24.2949 29.7195 24.3011 30.388 24.3242 31.0391L24.3535 31.7314C24.3982 32.7308 24.5704 33.3031 24.7246 33.6963V33.6973C24.9079 34.1865 25.1979 34.6264 25.5742 34.9922V34.9932C25.9455 35.3729 26.4009 35.6606 26.8975 35.8418V35.8408C27.2443 35.9734 27.7265 36.1213 28.5215 36.1855L28.8848 36.208C29.9359 36.2544 30.262 36.2656 32.9062 36.2656C35.5507 36.2656 35.8726 36.2544 36.9277 36.208C37.9445 36.1638 38.5228 35.9911 38.9199 35.8389L38.9209 35.8398C39.9138 35.462 40.7032 34.6831 41.0879 33.6992C41.2233 33.3554 41.3747 32.8771 41.4404 32.0869L41.4629 31.7275C41.5098 30.6863 41.5215 30.3719 41.5215 27.7627C41.5215 25.8061 41.5143 25.1382 41.4912 24.4873L41.4629 23.7949C41.4177 22.7879 41.243 22.2147 41.0879 21.8213C40.9026 21.3303 40.6103 20.8884 40.2305 20.5225C39.861 20.148 39.41 19.8639 38.918 19.6846H38.917C38.5204 19.5331 37.9465 19.3625 36.9316 19.3184C35.8803 19.2721 35.5584 19.2607 32.9102 19.2607Z" fill="white" stroke="white"/>
<path d="M32.9033 23.2349C35.4416 23.2351 37.4893 25.2655 37.4893 27.7534C37.489 30.2411 35.4415 32.2708 32.9033 32.271C30.3651 32.271 28.3166 30.2413 28.3164 27.7534C28.3164 25.2654 30.365 23.2349 32.9033 23.2349ZM32.9033 23.9976C30.8118 23.9976 29.1035 25.6735 29.1035 27.7534C29.1037 29.8332 30.812 31.5083 32.9033 31.5083C34.9946 31.5081 36.7019 29.833 36.7021 27.7534C36.7021 25.6736 34.9948 23.9978 32.9033 23.9976Z" fill="white" stroke="white"/>
<path d="M38.1895 21.8657C38.5757 21.8657 38.877 22.1731 38.877 22.5376C38.8768 22.9019 38.5755 23.2085 38.1895 23.2085C37.8036 23.2085 37.5021 22.9019 37.502 22.5376C37.502 22.173 37.8034 21.8657 38.1895 21.8657Z" fill="white" stroke="white"/>
<defs>
<filter id="filter0_d_25_1194" x="0.078125" y="0.560547" width="65.6387" height="65.6382" filterUnits="userSpaceOnUse" color-interpolation-filters="sRGB">
<feFlood flood-opacity="0" result="BackgroundImageFix"/>
<feColorMatrix in="SourceAlpha" type="matrix" values="0 0 0 0 0 0 0 0 0 0 0 0 0 0 0 0 0 0 127 0" result="hardAlpha"/>
<feOffset dy="4"/>
<feGaussianBlur stdDeviation="7.5"/>
<feComposite in2="hardAlpha" operator="out"/>
<feColorMatrix type="matrix" values="0 0 0 0 0 0 0 0 0 0 0 0 0 0 0 0 0 0 0.25 0"/>
<feBlend mode="normal" in2="BackgroundImageFix" result="effect1_dropShadow_25_1194"/>
<feBlend mode="normal" in="SourceGraphic" in2="effect1_dropShadow_25_1194" result="shape"/>
</filter>
</defs>
</svg>
