<svg width="21" height="19" viewBox="0 0 21 19" fill="none" xmlns="http://www.w3.org/2000/svg">
<path d="M17.749 1.17578C18.2937 0.973089 18.9871 0.97513 19.4951 1.46387C19.9936 1.94355 20.0682 2.65853 19.9219 3.34082C19.921 3.34478 19.9189 3.3486 19.918 3.35254L17.2842 15.6982L17.2812 15.709C17.159 16.2453 16.8874 16.8166 16.3057 17.0801C15.721 17.3448 15.1192 17.1657 14.6572 16.9082C14.6285 16.8922 14.6008 16.8739 14.5742 16.8545L11.0977 14.3076L9.65332 15.6865L9.6543 15.6875C9.55988 15.7813 9.38891 15.957 9.16016 16.0889C8.90462 16.2361 8.61616 16.3115 8.28223 16.3115C8.06041 16.3114 7.8485 16.2189 7.69727 16.0566C7.54594 15.8942 7.46863 15.6756 7.48438 15.4541L7.77344 11.3887L7.7998 11.2363C7.83985 11.0884 7.92148 10.9534 8.03711 10.8496L10.3389 8.78223L6.7334 11.0391C6.53596 11.1624 6.2946 11.1931 6.07227 11.124L2.1084 9.8916V9.89062C1.82616 9.803 1.54026 9.66917 1.31543 9.45898C1.07867 9.2376 0.88187 8.89864 0.918945 8.47754C0.953781 8.08258 1.18077 7.78676 1.40332 7.5918C1.63028 7.39301 1.91901 7.23745 2.23633 7.11426L2.24023 7.11328L17.7422 1.17773L17.749 1.17578Z" stroke="#26A1FC" stroke-width="1.6" stroke-linejoin="round"/>
</svg>
