<svg width="21" height="21" viewBox="0 0 21 21" fill="none" xmlns="http://www.w3.org/2000/svg">
<path d="M10.8174 1.03613C15.8358 1.03613 19.9159 5.11784 19.916 10.1357C19.916 15.1538 15.8359 19.2363 10.8174 19.2363C9.10733 19.2362 7.50978 18.7643 6.14062 17.9395L3.30469 18.8467C3.01757 18.9383 2.70281 18.8611 2.49121 18.6465C2.27957 18.4318 2.2069 18.1159 2.30273 17.8301L3.20996 15.124C2.26528 13.6911 1.71582 11.9749 1.71582 10.1357C1.71599 5.1168 5.79517 1.03623 10.8135 1.03613H10.8174ZM7.69043 6.43262C7.60684 6.43265 7.53118 6.44516 7.47461 6.46387C7.41698 6.48298 7.40393 6.49946 7.41309 6.49023C7.20238 6.70536 6.79297 7.08865 6.79297 7.9502C6.79302 8.36551 6.94926 8.82041 7.15527 9.22656C7.34519 9.60095 7.5466 9.87509 7.61523 9.96875C7.78983 10.1981 9.13699 12.3174 11.2139 13.2754L11.418 13.3643L12.0459 13.6113C12.6085 13.819 12.9842 13.916 13.2432 13.957C13.5539 14.0063 13.7013 13.9773 13.8516 13.9453C14.064 13.8991 14.3258 13.7902 14.5469 13.6406C14.7828 13.4809 14.8745 13.3436 14.8936 13.29L14.9434 13.1309C14.9718 13.0297 14.9914 12.9362 15.0039 12.8545C14.9919 12.8485 14.9792 12.8432 14.9668 12.8369V12.8359C14.8441 12.7749 14.492 12.6019 14.1436 12.4336C13.9677 12.3487 13.795 12.2663 13.6543 12.2012C13.632 12.1909 13.6109 12.181 13.5908 12.1719C13.4066 12.4311 13.1984 12.7218 13.0146 12.9199L13.0107 12.9238C12.5725 13.39 11.9471 13.3774 11.5361 13.207H11.5352C11.2605 13.0925 10.3989 12.7863 9.36426 11.8652C8.55129 11.1414 8.013 10.2584 7.86133 10.002L7.85742 9.99512C7.68739 9.7013 7.63382 9.36577 7.74609 9.03613C7.78951 8.90869 7.85561 8.79794 7.91406 8.71484L8.03809 8.55957C8.11374 8.46712 8.18463 8.38957 8.24414 8.32617C8.3108 8.25516 8.3563 8.20863 8.4043 8.15332C8.43393 8.11917 8.45258 8.09542 8.4707 8.07422C8.32968 7.74391 7.9673 6.86632 7.78906 6.43555C7.75636 6.43439 7.72401 6.43262 7.69043 6.43262Z" stroke="#26A1FC" stroke-width="1.6" stroke-linejoin="round"/>
</svg>
