<svg width="56" height="72" viewBox="0 0 56 72" fill="none" xmlns="http://www.w3.org/2000/svg">
<g opacity="0.5">
<path d="M46.4863 1.37891L55.0029 12.1006V70.6211H4.19336V1.37891H46.4863Z" stroke="white" stroke-width="2"/>
<path d="M28.6235 55.5586C27.5516 55.5586 26.6826 54.6896 26.6826 53.6177C26.6826 52.5458 27.5516 51.6768 28.6235 51.6768C29.6955 51.6768 30.5645 52.5458 30.5645 53.6177C30.5645 54.6896 29.6955 55.5586 28.6235 55.5586Z" fill="white"/>
<path d="M15.0408 36.1492H28.6299C29.1661 36.1492 29.6016 35.7149 29.6016 35.1787C29.6016 34.6437 29.1661 34.2095 28.6299 34.2095H15.0408C14.5046 34.2095 14.0704 34.6437 14.0704 35.1787C14.0704 35.7149 14.5058 36.1492 15.0408 36.1492Z" fill="white"/>
<path d="M15.0336 42.9414H44.1513C44.6876 42.9414 45.123 42.5072 45.123 41.9697C45.123 41.4335 44.6876 41.0005 44.1513 41.0005H15.0336C14.4973 41.0005 14.0631 41.4347 14.0631 41.9697C14.0631 42.506 14.4986 42.9414 15.0336 42.9414Z" fill="white"/>
<path d="M15.0375 48.7652H44.1552C44.6915 48.7652 45.127 48.3297 45.127 47.7947C45.127 47.2572 44.6915 46.8242 44.1552 46.8242H15.0375C14.5012 46.8242 14.067 47.2584 14.067 47.7947C14.067 48.3284 14.5025 48.7652 15.0375 48.7652Z" fill="white"/>
<path d="M34.4493 54.5906H44.1552C44.6915 54.5906 45.127 54.1551 45.127 53.6201C45.127 53.0839 44.6915 52.6484 44.1552 52.6484H34.4493C33.9131 52.6484 33.4789 53.0839 33.4789 53.6201C33.4789 54.1551 33.9131 54.5906 34.4493 54.5906Z" fill="white"/>
<path d="M15.038 62.3503H22.803C23.3392 62.3503 23.7734 61.9161 23.7734 61.3811C23.7734 60.8449 23.3392 60.4106 22.803 60.4106H15.038C14.5017 60.4106 14.0675 60.8449 14.0675 61.3811C14.0675 61.9161 14.503 62.3503 15.038 62.3503Z" fill="white"/>
<path d="M3.33984 9.10693H36.3086C37.4131 9.10697 38.3086 10.0024 38.3086 11.1069V24.6411C38.3086 25.7457 37.4131 26.6411 36.3086 26.6411H3.33984C2.23528 26.6411 1.33985 25.7457 1.33984 24.6411V11.1069C1.33984 10.0024 2.23527 9.10693 3.33984 9.10693Z" fill="#00B7DF" stroke="white" stroke-width="2"/>
<path d="M6.89773 21.8164H9.31973C10.6777 21.8164 11.5807 21.3824 12.3297 20.3604C12.9597 19.5064 12.9737 18.4844 12.9737 16.8324C12.9737 15.1804 12.9597 14.1584 12.3297 13.3044C11.5807 12.2824 10.6777 11.8484 9.31973 11.8484H6.89773C6.61073 11.8484 6.25373 11.8484 5.98073 12.1214C5.70773 12.3944 5.70773 12.7514 5.70773 13.0384V20.6264C5.70773 20.9134 5.70773 21.2704 5.98073 21.5434C6.25373 21.8164 6.61073 21.8164 6.89773 21.8164ZM7.66773 13.5844H9.15173C9.80973 13.5844 10.2857 13.7944 10.6077 14.2004C10.9717 14.6554 11.0137 15.2644 11.0137 16.8324C11.0137 18.4004 10.9717 19.0094 10.6077 19.4644C10.2857 19.8704 9.80973 20.0804 9.15173 20.0804H7.66773V13.5844ZM18.3029 21.9004C19.4579 21.9004 20.3049 21.5294 20.9769 20.8504C21.9639 19.8634 21.9989 18.7364 21.9989 16.8324C21.9989 14.9284 21.9639 13.8014 20.9769 12.8144C20.3049 12.1354 19.4579 11.7644 18.3029 11.7644C17.1479 11.7644 16.3009 12.1354 15.6289 12.8144C14.6419 13.8014 14.6069 14.9284 14.6069 16.8324C14.6069 18.7364 14.6419 19.8634 15.6289 20.8504C16.3009 21.5294 17.1479 21.9004 18.3029 21.9004ZM18.3029 13.5004C18.8349 13.5004 19.2759 13.7104 19.5559 14.0324C19.9269 14.4524 20.0389 14.9284 20.0389 16.8324C20.0389 18.7364 19.9269 19.2054 19.5559 19.6254C19.2759 19.9404 18.8349 20.1644 18.3029 20.1644C17.7709 20.1644 17.3299 19.9404 17.0499 19.6254C16.6789 19.2054 16.5669 18.7364 16.5669 16.8324C16.5669 14.9284 16.6789 14.4524 17.0499 14.0324C17.3299 13.7104 17.7709 13.5004 18.3029 13.5004ZM27.2497 20.1644C26.7387 20.1644 26.3537 19.9544 26.0667 19.6324C25.6537 19.1564 25.5767 18.6104 25.5767 16.8324C25.5767 15.0544 25.6537 14.5084 26.0667 14.0324C26.3537 13.7104 26.7387 13.5004 27.2497 13.5004C27.9357 13.5004 28.4047 13.8294 28.7197 14.5294C28.8527 14.8164 29.0067 15.0684 29.2027 15.2224C29.3287 15.3204 29.5387 15.3904 29.7627 15.3904C30.0147 15.3904 30.2527 15.3134 30.4417 15.1244C30.6237 14.9424 30.7007 14.7254 30.7007 14.3824C30.7007 13.9904 30.4977 13.2834 29.8467 12.6604C29.2237 12.0514 28.4817 11.7644 27.2917 11.7644C26.1787 11.7644 25.3107 12.1354 24.6387 12.8144C23.6517 13.8014 23.6167 14.9284 23.6167 16.8324C23.6167 18.7364 23.6517 19.8634 24.6387 20.8504C25.3107 21.5294 26.1787 21.9004 27.2917 21.9004C28.4817 21.9004 29.2237 21.6134 29.8467 21.0044C30.4977 20.3814 30.7007 19.6744 30.7007 19.2824C30.7007 18.9394 30.6237 18.7224 30.4417 18.5404C30.2527 18.3514 30.0147 18.2744 29.7627 18.2744C29.5387 18.2744 29.3287 18.3444 29.2027 18.4424C29.0067 18.5964 28.8527 18.8484 28.7197 19.1354C28.4047 19.8354 27.9357 20.1644 27.2497 20.1644Z" fill="white"/>
</g>
</svg>
