<svg width="57" height="72" viewBox="0 0 57 72" fill="none" xmlns="http://www.w3.org/2000/svg">
<g opacity="0.5">
<path d="M47.002 1.37891L55.5186 12.1006V70.6211H4.70898V1.37891H47.002Z" stroke="white" stroke-width="2"/>
<path d="M29.1411 55.5586C28.0691 55.5586 27.2002 54.6896 27.2002 53.6177C27.2002 52.5458 28.0691 51.6768 29.1411 51.6768C30.213 51.6768 31.082 52.5458 31.082 53.6177C31.082 54.6896 30.213 55.5586 29.1411 55.5586Z" fill="white"/>
<path d="M15.5584 36.1492H29.1474C29.6837 36.1492 30.1191 35.7149 30.1191 35.1787C30.1191 34.6437 29.6837 34.2095 29.1474 34.2095H15.5584C15.0222 34.2095 14.5879 34.6437 14.5879 35.1787C14.5879 35.7149 15.0234 36.1492 15.5584 36.1492Z" fill="white"/>
<path d="M15.5512 42.9414H44.6689C45.2052 42.9414 45.6406 42.5072 45.6406 41.9697C45.6406 41.4335 45.2052 41.0005 44.6689 41.0005H15.5512C15.0149 41.0005 14.5807 41.4347 14.5807 41.9697C14.5807 42.506 15.0162 42.9414 15.5512 42.9414Z" fill="white"/>
<path d="M15.5551 48.7652H44.6728C45.2091 48.7652 45.6445 48.3297 45.6445 47.7947C45.6445 47.2572 45.2091 46.8242 44.6728 46.8242H15.5551C15.0188 46.8242 14.5846 47.2584 14.5846 47.7947C14.5846 48.3284 15.0201 48.7652 15.5551 48.7652Z" fill="white"/>
<path d="M34.9669 54.5906H44.6728C45.2091 54.5906 45.6445 54.1551 45.6445 53.6201C45.6445 53.0839 45.2091 52.6484 44.6728 52.6484H34.9669C34.4307 52.6484 33.9964 53.0839 33.9964 53.6201C33.9964 54.1551 34.4307 54.5906 34.9669 54.5906Z" fill="white"/>
<path d="M15.5556 62.3503H23.3205C23.8568 62.3503 24.291 61.9161 24.291 61.3811C24.291 60.8449 23.8568 60.4106 23.3205 60.4106H15.5556C15.0193 60.4106 14.5851 60.8449 14.5851 61.3811C14.5851 61.9161 15.0206 62.3503 15.5556 62.3503Z" fill="white"/>
<path d="M3.85547 9.10693H36.8242C37.9288 9.10697 38.8242 10.0024 38.8242 11.1069V24.6411C38.8242 25.7457 37.9288 26.6411 36.8242 26.6411H3.85547C2.7509 26.6411 1.85548 25.7457 1.85547 24.6411V11.1069C1.85547 10.0024 2.7509 9.10693 3.85547 9.10693Z" fill="#0194E6" stroke="white" stroke-width="2"/>
<path d="M7.41336 21.8164H9.83536C11.1934 21.8164 12.0964 21.3824 12.8454 20.3604C13.4754 19.5064 13.4894 18.4844 13.4894 16.8324C13.4894 15.1804 13.4754 14.1584 12.8454 13.3044C12.0964 12.2824 11.1934 11.8484 9.83536 11.8484H7.41336C7.12636 11.8484 6.76936 11.8484 6.49636 12.1214C6.22336 12.3944 6.22336 12.7514 6.22336 13.0384V20.6264C6.22336 20.9134 6.22336 21.2704 6.49636 21.5434C6.76936 21.8164 7.12636 21.8164 7.41336 21.8164ZM8.18336 13.5844H9.66736C10.3254 13.5844 10.8014 13.7944 11.1234 14.2004C11.4874 14.6554 11.5294 15.2644 11.5294 16.8324C11.5294 18.4004 11.4874 19.0094 11.1234 19.4644C10.8014 19.8704 10.3254 20.0804 9.66736 20.0804H8.18336V13.5844ZM18.8185 21.9004C19.9735 21.9004 20.8205 21.5294 21.4925 20.8504C22.4795 19.8634 22.5145 18.7364 22.5145 16.8324C22.5145 14.9284 22.4795 13.8014 21.4925 12.8144C20.8205 12.1354 19.9735 11.7644 18.8185 11.7644C17.6635 11.7644 16.8165 12.1354 16.1445 12.8144C15.1575 13.8014 15.1225 14.9284 15.1225 16.8324C15.1225 18.7364 15.1575 19.8634 16.1445 20.8504C16.8165 21.5294 17.6635 21.9004 18.8185 21.9004ZM18.8185 13.5004C19.3505 13.5004 19.7915 13.7104 20.0715 14.0324C20.4425 14.4524 20.5545 14.9284 20.5545 16.8324C20.5545 18.7364 20.4425 19.2054 20.0715 19.6254C19.7915 19.9404 19.3505 20.1644 18.8185 20.1644C18.2865 20.1644 17.8455 19.9404 17.5655 19.6254C17.1945 19.2054 17.0825 18.7364 17.0825 16.8324C17.0825 14.9284 17.1945 14.4524 17.5655 14.0324C17.8455 13.7104 18.2865 13.5004 18.8185 13.5004ZM27.7653 20.1644C27.2543 20.1644 26.8693 19.9544 26.5823 19.6324C26.1693 19.1564 26.0923 18.6104 26.0923 16.8324C26.0923 15.0544 26.1693 14.5084 26.5823 14.0324C26.8693 13.7104 27.2543 13.5004 27.7653 13.5004C28.4513 13.5004 28.9203 13.8294 29.2353 14.5294C29.3683 14.8164 29.5223 15.0684 29.7183 15.2224C29.8443 15.3204 30.0543 15.3904 30.2783 15.3904C30.5303 15.3904 30.7683 15.3134 30.9573 15.1244C31.1393 14.9424 31.2163 14.7254 31.2163 14.3824C31.2163 13.9904 31.0133 13.2834 30.3623 12.6604C29.7393 12.0514 28.9973 11.7644 27.8073 11.7644C26.6943 11.7644 25.8263 12.1354 25.1543 12.8144C24.1673 13.8014 24.1323 14.9284 24.1323 16.8324C24.1323 18.7364 24.1673 19.8634 25.1543 20.8504C25.8263 21.5294 26.6943 21.9004 27.8073 21.9004C28.9973 21.9004 29.7393 21.6134 30.3623 21.0044C31.0133 20.3814 31.2163 19.6744 31.2163 19.2824C31.2163 18.9394 31.1393 18.7224 30.9573 18.5404C30.7683 18.3514 30.5303 18.2744 30.2783 18.2744C30.0543 18.2744 29.8443 18.3444 29.7183 18.4424C29.5223 18.5964 29.3683 18.8484 29.2353 19.1354C28.9203 19.8354 28.4513 20.1644 27.7653 20.1644Z" fill="white"/>
</g>
</svg>
