<svg width="16" height="15" viewBox="0 0 16 15" fill="none" xmlns="http://www.w3.org/2000/svg">
<path d="M4.42383 1.16504L4.42285 1.16602C4.5403 1.17065 4.86949 1.17226 5.17383 1.37109C5.40378 1.52136 5.55196 1.73365 5.6582 1.94141L5.75195 2.14551V2.14746C5.87184 2.4363 6.07946 2.93913 6.2627 3.38281C6.35472 3.60565 6.44039 3.81426 6.50781 3.97559C6.54157 4.05635 6.57083 4.12433 6.59277 4.17578C6.60369 4.20137 6.61243 4.22196 6.61914 4.2373C6.62436 4.24923 6.62715 4.25512 6.62793 4.25684H6.62695C6.70956 4.42837 6.94522 4.94782 6.6582 5.50391L6.65625 5.50293C6.51396 5.79716 6.36752 5.95826 6.23047 6.11621C6.14416 6.21568 6.05739 6.30561 5.99316 6.37402C5.95624 6.41336 5.92465 6.45029 5.89355 6.48535C6.13138 6.86144 6.59798 7.53725 7.21875 8.08984C8.1311 8.90207 8.8677 9.19907 9.22852 9.34473C9.38963 9.14742 9.59082 8.8627 9.83594 8.51953C10.0214 8.25875 10.2811 8.04746 10.6172 7.95996C10.9341 7.87758 11.2285 7.92962 11.46 8.01367L11.4609 8.0127C11.6509 8.07866 12.1275 8.30585 12.5254 8.49805L13.5312 8.99121L13.5332 8.99219C13.6255 9.03855 13.815 9.12734 13.918 9.18359C14.0142 9.2362 14.21 9.34721 14.3604 9.55273L14.4219 9.64648L14.4248 9.65137V9.65234C14.5364 9.84978 14.5557 10.0655 14.5625 10.1582C14.5723 10.2919 14.5701 10.4414 14.5566 10.5957C14.5364 10.8282 14.4893 11.0995 14.4072 11.3906L14.3125 11.6885C14.1116 12.2557 13.6571 12.6865 13.2285 12.9766C12.7855 13.2764 12.2641 13.4992 11.7812 13.6035H11.7793C11.4538 13.6728 11.0519 13.7356 10.4102 13.6338C9.80255 13.5374 8.99748 13.2976 7.83203 12.8145V12.8135C6.22719 12.1484 4.9374 11.0166 4.0459 10.0586C3.59649 9.57565 3.23923 9.12674 2.98438 8.78613C2.85681 8.61563 2.75422 8.47199 2.67969 8.36523C2.64288 8.31251 2.61238 8.26752 2.59082 8.23633C2.56373 8.19713 2.55996 8.19234 2.56445 8.19824C2.56122 8.19399 2.55783 8.18986 2.55469 8.18555C2.48277 8.08689 2.15504 7.64983 1.84668 7.04199C1.54407 6.44541 1.22366 5.61436 1.22363 4.72266C1.22363 2.97077 2.14121 2.08054 2.46582 1.74902L2.55176 1.66699C2.99227 1.27587 3.58647 1.15332 4.05176 1.15332C4.19858 1.15333 4.33085 1.16039 4.42383 1.16504Z" stroke="#0094FF" stroke-width="1.6" stroke-linejoin="round"/>
</svg>
