<svg width="20" height="21" viewBox="0 0 20 21" fill="none" xmlns="http://www.w3.org/2000/svg">
<path d="M9.90234 1.48633C12.588 1.48633 12.9157 1.49779 13.9639 1.54688H13.9648C14.9684 1.59053 15.6351 1.74912 16.2109 1.96875L16.2148 1.9707C16.7309 2.16237 17.2075 2.45093 17.6162 2.81836L17.7871 2.98047L17.7939 2.9873C18.2473 3.42426 18.5938 3.94952 18.8193 4.53809L18.8213 4.54297C19.0427 5.10472 19.2029 5.76344 19.2471 6.75195C19.2929 7.78114 19.2969 8.10326 19.2969 10.7559C19.2969 13.4047 19.2851 13.7284 19.2393 14.7588C19.1951 15.7466 19.0343 16.4021 18.8125 16.9688C18.35 18.1487 17.4036 19.084 16.2031 19.542L16.2021 19.543C15.6311 19.7621 14.9611 19.9202 13.957 19.9639C12.9121 20.0093 12.5838 20.0205 9.89844 20.0205C7.21267 20.0205 6.88394 20.0093 5.83887 19.9639C4.83546 19.9202 4.16964 19.7616 3.59375 19.542L3.58984 19.541L3.37109 19.4531C2.86673 19.2341 2.40642 18.9199 2.01758 18.5303L2.01172 18.5254L1.84668 18.3564C1.47428 17.9538 1.18219 17.4864 0.985352 16.9727L0.983398 16.9678C0.789716 16.4763 0.642434 15.9108 0.579102 15.1152L0.557617 14.7588C0.511741 13.7284 0.500001 13.4047 0.5 10.7559C0.5 8.10643 0.511801 7.78341 0.561523 6.75V6.74805C0.605677 5.76005 0.765339 5.10462 0.987305 4.53809L0.989258 4.53418C1.21061 3.95435 1.56063 3.42459 2.01172 2.98633L2.01855 2.97949C2.46148 2.53225 2.99482 2.18911 3.59375 1.96582L3.59863 1.96484C4.16969 1.74585 4.83897 1.58666 5.84277 1.54297C6.88807 1.49767 7.21664 1.48633 9.90234 1.48633ZM9.91016 2.26074C7.26579 2.26074 6.94361 2.27213 5.88867 2.31836C5.12532 2.35168 4.60863 2.45667 4.23047 2.57129L3.89355 2.6875C3.4604 2.84647 3.06409 3.08543 2.72363 3.39355L2.58008 3.53125C2.19834 3.89434 1.91013 4.33723 1.72754 4.82129C1.59192 5.16536 1.44164 5.64465 1.37598 6.43652L1.35352 6.79492C1.30648 7.83234 1.29492 8.15412 1.29492 10.7627C1.29492 12.7195 1.30114 13.388 1.32422 14.0391L1.35352 14.7314C1.39818 15.7308 1.5704 16.3031 1.72461 16.6963V16.6973C1.90787 17.1865 2.19788 17.6264 2.57422 17.9922V17.9932C2.94555 18.3729 3.40085 18.6606 3.89746 18.8418V18.8408C4.24429 18.9734 4.72648 19.1213 5.52148 19.1855L5.88477 19.208C6.93594 19.2544 7.262 19.2656 9.90625 19.2656C12.5507 19.2656 12.8726 19.2544 13.9277 19.208C14.9445 19.1638 15.5228 18.9911 15.9199 18.8389L15.9209 18.8398C16.9138 18.462 17.7032 17.6831 18.0879 16.6992C18.2233 16.3554 18.3747 15.8771 18.4404 15.0869L18.4629 14.7275C18.5098 13.6863 18.5215 13.3719 18.5215 10.7627C18.5215 8.80606 18.5143 8.13823 18.4912 7.4873L18.4629 6.79492C18.4177 5.78794 18.243 5.21469 18.0879 4.82129C17.9026 4.33025 17.6103 3.88839 17.2305 3.52246C16.861 3.148 16.41 2.86385 15.918 2.68457H15.917C15.5204 2.5331 14.9465 2.36252 13.9316 2.31836C12.8803 2.27212 12.5584 2.26074 9.91016 2.26074Z" fill="white" stroke="white"/>
<path d="M9.90332 6.23486C12.4416 6.23511 14.4893 8.26552 14.4893 10.7534C14.489 13.2411 12.4415 15.2708 9.90332 15.271C7.3651 15.271 5.31662 13.2413 5.31641 10.7534C5.31641 8.26538 7.36496 6.23486 9.90332 6.23486ZM9.90332 6.99756C7.81184 6.99756 6.10352 8.67347 6.10352 10.7534C6.10373 12.8332 7.81197 14.5083 9.90332 14.5083C11.9946 14.5081 13.7019 12.833 13.7021 10.7534C13.7021 8.67364 11.9948 6.9978 9.90332 6.99756Z" fill="white" stroke="white"/>
<path d="M15.1895 4.86572C15.5757 4.86575 15.877 5.17306 15.877 5.5376C15.8768 5.90188 15.5755 6.20847 15.1895 6.2085C14.8036 6.2085 14.5021 5.90193 14.502 5.5376C14.502 5.17301 14.8034 4.86572 15.1895 4.86572Z" fill="white" stroke="white"/>
</svg>
