<svg width="21" height="21" viewBox="0 0 21 21" fill="none" xmlns="http://www.w3.org/2000/svg">
<path d="M10.6875 0.996094C15.564 0.996094 19.5508 4.91271 19.5508 9.75586C19.5507 14.599 15.564 18.5156 10.6875 18.5156C9.06241 18.5156 7.5406 18.0826 6.22754 17.3232L3.63867 18.1406L1.75488 18.7344L2.39062 16.8643L3.20898 14.4561C2.33012 13.098 1.82033 11.4835 1.82031 9.75586C1.82031 4.91166 5.80715 0.996099 10.6836 0.996094H10.6875ZM13.3916 11.9697C13.2451 12.1698 13.0877 12.3806 12.9424 12.5352L12.9375 12.54C12.7601 12.7262 12.5569 12.8418 12.3496 12.9082C12.6464 13.002 12.862 13.0532 13.0215 13.0781C13.279 13.1184 13.3895 13.096 13.5117 13.0703C13.6834 13.0337 13.9051 12.9442 14.0908 12.8203C14.2958 12.6835 14.3309 12.592 14.3223 12.6162C14.3442 12.5549 14.3605 12.4956 14.375 12.4404C14.2168 12.3633 13.9767 12.2464 13.7383 12.1328C13.6171 12.0751 13.4981 12.0192 13.3916 11.9697ZM7.64648 6.55078C7.62601 6.55384 7.60961 6.55799 7.59766 6.56152C7.49024 6.6699 7.39094 6.77331 7.30176 6.93066C7.2096 7.0933 7.11624 7.33828 7.11621 7.71191C7.11621 8.04039 7.24365 8.42237 7.43066 8.78613C7.45005 8.82383 7.47175 8.85923 7.49121 8.89453C7.50221 8.81087 7.52079 8.72665 7.5498 8.64258C7.6514 8.34837 7.85554 8.13359 7.87305 8.11328H7.87402C7.95001 8.02196 8.02067 7.94608 8.07715 7.88672C8.12006 7.84162 8.14978 7.80746 8.17773 7.77734C8.03811 7.44885 7.81101 6.90958 7.66016 6.54883C7.65552 6.54938 7.65097 6.55011 7.64648 6.55078Z" stroke="white" stroke-width="2"/>
</svg>
