<svg width="22" height="19" viewBox="0 0 22 19" fill="none" xmlns="http://www.w3.org/2000/svg">
<path d="M17.9062 2.08301C18.4748 1.87422 19.2358 1.86422 19.8047 2.4043C20.3666 2.93782 20.4313 3.7161 20.2822 4.40137C20.2811 4.40638 20.2785 4.41103 20.2773 4.41602L17.7822 15.9531L17.7793 15.9668C17.6552 16.5042 17.3669 17.1305 16.7148 17.4219C16.0634 17.7129 15.4103 17.5082 14.9443 17.252C14.9085 17.2323 14.8739 17.2104 14.8408 17.1865L11.7031 14.9199L10.4678 16.085L10.4668 16.084C10.3761 16.1733 10.1998 16.3502 9.96387 16.4844C9.68257 16.6443 9.3691 16.7227 9.0166 16.7227C8.73892 16.7226 8.47334 16.6076 8.28418 16.4043C8.09515 16.2011 7.99964 15.9282 8.01953 15.6514L8.29297 11.8496C8.31184 11.5892 8.43249 11.347 8.62793 11.1738L8.64746 11.1562L7.67188 11.7588C7.4269 11.9099 7.1287 11.9477 6.85352 11.8633L3.09863 10.7109C2.81189 10.6232 2.50352 10.4841 2.25391 10.2539C1.98982 10.0103 1.75358 9.61976 1.79785 9.12402C1.83911 8.66248 2.10658 8.33096 2.34375 8.12598C2.58729 7.91549 2.88809 7.75775 3.2041 7.63672L3.20801 7.63477L17.8975 2.08594L17.9062 2.08301Z" stroke="white" stroke-width="2" stroke-linejoin="round"/>
</svg>
